<mxfile host="app.diagrams.net" modified="2024-05-12T08:41:41.565Z" agent="Mozilla/5.0 (X11; Ubuntu; Linux x86_64; rv:125.0) Gecko/20100101 Firefox/125.0" etag="kdiaq8iEqEuAi9AiMN6T" version="24.4.0" type="github">
  <diagram name="Page-1" id="alDKycs5oU3pcxEAZStF">
    <mxGraphModel dx="3374" dy="907" grid="1" gridSize="10" guides="1" tooltips="1" connect="1" arrows="1" fold="1" page="1" pageScale="1" pageWidth="850" pageHeight="1100" math="0" shadow="0">
      <root>
        <mxCell id="0" />
        <mxCell id="1" parent="0" />
        <mxCell id="bv6qjs0hTHORihQvAECl-1" value="" style="rounded=0;whiteSpace=wrap;html=1;strokeColor=#FF3333;dashed=1;fillColor=none;strokeWidth=2;" vertex="1" parent="1">
          <mxGeometry x="-720" y="50" width="552" height="550" as="geometry" />
        </mxCell>
        <mxCell id="bv6qjs0hTHORihQvAECl-4" style="edgeStyle=orthogonalEdgeStyle;rounded=0;orthogonalLoop=1;jettySize=auto;html=1;entryX=0.5;entryY=0;entryDx=0;entryDy=0;entryPerimeter=0;strokeColor=none;dashed=1;strokeWidth=4;" edge="1" parent="1">
          <mxGeometry relative="1" as="geometry">
            <mxPoint x="-1438" y="430" as="sourcePoint" />
            <mxPoint x="-1438" y="530" as="targetPoint" />
          </mxGeometry>
        </mxCell>
        <mxCell id="bv6qjs0hTHORihQvAECl-8" value="&lt;h1&gt;&lt;font style=&quot;font-size: 36px;&quot; color=&quot;#ff3333&quot;&gt;&lt;b&gt;Faru Gateway &lt;/b&gt;&lt;/font&gt;&lt;/h1&gt;" style="sketch=0;points=[[0,0,0],[0.25,0,0],[0.5,0,0],[0.75,0,0],[1,0,0],[0,1,0],[0.25,1,0],[0.5,1,0],[0.75,1,0],[1,1,0],[0,0.25,0],[0,0.5,0],[0,0.75,0],[1,0.25,0],[1,0.5,0],[1,0.75,0]];outlineConnect=0;fontColor=#232F3E;gradientColor=#945DF2;gradientDirection=north;fillColor=#5A30B5;strokeColor=#ffffff;dashed=0;verticalLabelPosition=bottom;verticalAlign=top;align=center;html=1;fontSize=12;fontStyle=0;aspect=fixed;shape=mxgraph.aws4.resourceIcon;resIcon=mxgraph.aws4.api_gateway;" vertex="1" parent="1">
          <mxGeometry x="-1237" y="241" width="113" height="113" as="geometry" />
        </mxCell>
        <mxCell id="bv6qjs0hTHORihQvAECl-9" value="&lt;div style=&quot;font-size: 13px;&quot;&gt;&lt;font style=&quot;font-size: 13px;&quot;&gt;&lt;b&gt;&lt;font style=&quot;font-size: 13px;&quot; color=&quot;#ff3333&quot;&gt;MNRT&lt;/font&gt;&lt;/b&gt;&lt;/font&gt;&lt;/div&gt;&lt;div style=&quot;font-size: 13px;&quot;&gt;&lt;font style=&quot;font-size: 13px;&quot; color=&quot;#ff3333&quot;&gt;&lt;b&gt;DATAWARE HOUSE&lt;/b&gt;&lt;br&gt;&lt;/font&gt;&lt;/div&gt;" style="shape=datastore;whiteSpace=wrap;html=1;strokeWidth=2;strokeColor=#6666FF;" vertex="1" parent="1">
          <mxGeometry x="-563" y="169" width="130" height="130" as="geometry" />
        </mxCell>
        <mxCell id="bv6qjs0hTHORihQvAECl-10" value="&lt;div&gt;&lt;font style=&quot;font-size: 14px;&quot; color=&quot;#ff3333&quot;&gt;&lt;b&gt;UHIFADHI &lt;br&gt;&lt;/b&gt;&lt;/font&gt;&lt;/div&gt;&lt;div&gt;&lt;font style=&quot;font-size: 14px;&quot; color=&quot;#00cc66&quot;&gt;&lt;b&gt;&amp;nbsp; &amp;nbsp; &amp;nbsp; &amp;nbsp; &amp;nbsp; &amp;nbsp; &amp;nbsp; &amp;nbsp; &amp;nbsp; &amp;nbsp; &amp;nbsp; &amp;nbsp; &amp;nbsp; &amp;nbsp; &amp;nbsp; &amp;nbsp; &amp;nbsp; &amp;nbsp; &amp;nbsp; &amp;nbsp; &amp;nbsp; &amp;nbsp; &amp;nbsp; &amp;nbsp; &amp;nbsp; &amp;nbsp; &amp;nbsp; &amp;nbsp; &amp;nbsp; &amp;nbsp; &amp;nbsp; &amp;nbsp; &amp;nbsp; &amp;nbsp; &amp;nbsp; &amp;nbsp;&lt;/b&gt;&lt;/font&gt;&lt;font style=&quot;font-size: 14px;&quot; color=&quot;#ff0080&quot;&gt;&lt;b&gt;-Conservation Budget and Resources Module&lt;/b&gt;&lt;/font&gt;&lt;/div&gt;&lt;div&gt;&lt;font style=&quot;font-size: 14px;&quot; color=&quot;#ff0080&quot;&gt;&lt;b&gt;&amp;nbsp; &amp;nbsp; &amp;nbsp; &amp;nbsp; &amp;nbsp; &amp;nbsp; &amp;nbsp; &amp;nbsp; &amp;nbsp; &amp;nbsp; &amp;nbsp; &amp;nbsp; &amp;nbsp; &amp;nbsp; &amp;nbsp; &amp;nbsp; &amp;nbsp; &amp;nbsp; &amp;nbsp; &amp;nbsp; &amp;nbsp; &amp;nbsp; &amp;nbsp; &amp;nbsp; &amp;nbsp; &amp;nbsp;-Biodiversity Management Module&lt;/b&gt;&lt;/font&gt;&lt;/div&gt;&lt;div&gt;&lt;font style=&quot;font-size: 14px;&quot; color=&quot;#ff0080&quot;&gt;&lt;b&gt;&amp;nbsp; &amp;nbsp; &amp;nbsp; &amp;nbsp; &amp;nbsp; &amp;nbsp; &amp;nbsp; &amp;nbsp; &amp;nbsp; &amp;nbsp; &amp;nbsp; &amp;nbsp; &amp;nbsp; &amp;nbsp; &amp;nbsp; &amp;nbsp; &amp;nbsp; &amp;nbsp; &amp;nbsp; &amp;nbsp; &amp;nbsp; &amp;nbsp; &amp;nbsp; &amp;nbsp; &amp;nbsp; &amp;nbsp; &amp;nbsp; &amp;nbsp; &amp;nbsp;-Natural Resources Utilization Module&lt;/b&gt;&lt;/font&gt;&lt;/div&gt;&lt;div&gt;&lt;font style=&quot;font-size: 14px;&quot; color=&quot;#ff0080&quot;&gt;&lt;b&gt;&lt;br&gt;&lt;/b&gt;&lt;/font&gt;&lt;/div&gt;&lt;div&gt;&lt;font color=&quot;#6666ff&quot;&gt;&amp;nbsp; &amp;nbsp; &amp;nbsp; &amp;nbsp; &amp;nbsp; &amp;nbsp; &amp;nbsp; &amp;nbsp; &amp;nbsp; &amp;nbsp; &amp;nbsp; &amp;nbsp; &amp;nbsp; &amp;nbsp; &amp;nbsp; &amp;nbsp; &amp;nbsp; &amp;nbsp; &amp;nbsp; &amp;nbsp; &amp;nbsp; &amp;nbsp; &amp;nbsp; &amp;nbsp; &amp;nbsp; &amp;nbsp; &amp;nbsp; &amp;nbsp; &amp;nbsp; &amp;nbsp; &amp;nbsp; &amp;nbsp; &amp;nbsp; &amp;nbsp; &amp;nbsp; &amp;nbsp; &amp;nbsp; &amp;nbsp; &amp;nbsp; &amp;nbsp; &amp;nbsp; &amp;nbsp; &amp;nbsp; &amp;nbsp; &amp;nbsp; &amp;nbsp; &amp;nbsp; &amp;nbsp; &amp;nbsp; &amp;nbsp;&lt;font style=&quot;font-size: 14px;&quot;&gt;&lt;b&gt;-Wildlife and Forest Crime Information System Module&lt;/b&gt;&lt;/font&gt;&lt;/font&gt;&lt;/div&gt;&lt;div&gt;&lt;font color=&quot;#ff0080&quot;&gt;&amp;nbsp;&amp;nbsp;&amp;nbsp;&amp;nbsp;&amp;nbsp;&amp;nbsp;&amp;nbsp;&amp;nbsp;&amp;nbsp;&amp;nbsp;&amp;nbsp;&amp;nbsp;&amp;nbsp;&amp;nbsp;&amp;nbsp;&amp;nbsp;&amp;nbsp;&amp;nbsp;&amp;nbsp;&amp;nbsp;&amp;nbsp;&amp;nbsp;&amp;nbsp;&amp;nbsp;&amp;nbsp;&amp;nbsp;&amp;nbsp;&amp;nbsp;&amp;nbsp;&amp;nbsp;&amp;nbsp;&amp;nbsp;&amp;nbsp;&amp;nbsp;&amp;nbsp;&amp;nbsp;&amp;nbsp;&amp;nbsp;&amp;nbsp;&amp;nbsp;&amp;nbsp;&amp;nbsp;&amp;nbsp;&amp;nbsp;&amp;nbsp;&amp;nbsp;&amp;nbsp;&amp;nbsp;&amp;nbsp;&amp;nbsp;&amp;nbsp;&amp;nbsp;&amp;nbsp;&amp;nbsp;&amp;nbsp;&amp;nbsp;&amp;nbsp;&amp;nbsp;&amp;nbsp;&amp;nbsp;&amp;nbsp;&amp;nbsp;&amp;nbsp;&amp;nbsp;&amp;nbsp;&amp;nbsp;&amp;nbsp;&amp;nbsp;&amp;nbsp;&amp;nbsp;&amp;nbsp;&amp;nbsp;&amp;nbsp;&amp;nbsp;&amp;nbsp;&amp;nbsp;&amp;nbsp;&amp;nbsp;&amp;nbsp;&amp;nbsp;&amp;nbsp;&amp;nbsp;&amp;nbsp;&amp;nbsp;&amp;nbsp;&amp;nbsp;&amp;nbsp;&amp;nbsp;&amp;nbsp;&amp;nbsp;&amp;nbsp;&amp;nbsp;&amp;nbsp; &lt;font style=&quot;font-size: 14px;&quot;&gt;&lt;b&gt;&lt;br&gt;&lt;/b&gt;&lt;/font&gt;&lt;/font&gt;&lt;/div&gt;&lt;div&gt;&lt;font color=&quot;#ff0080&quot;&gt;&lt;font style=&quot;font-size: 14px;&quot;&gt;&lt;b&gt;&amp;nbsp; &amp;nbsp; &amp;nbsp; &amp;nbsp; &amp;nbsp; &amp;nbsp; &amp;nbsp; &amp;nbsp; &amp;nbsp; &amp;nbsp; &amp;nbsp; &amp;nbsp; &amp;nbsp; &amp;nbsp; &amp;nbsp; &amp;nbsp; &amp;nbsp; &amp;nbsp; &amp;nbsp; &amp;nbsp; &amp;nbsp; &amp;nbsp; &amp;nbsp; &amp;nbsp; &amp;nbsp; &amp;nbsp; &amp;nbsp; &amp;nbsp; &amp;nbsp; &amp;nbsp; &amp;nbsp; &amp;nbsp; &amp;nbsp; &amp;nbsp; &amp;nbsp; -Human Wildlife Conflict Management Module&lt;/b&gt;&lt;/font&gt;&lt;/font&gt;&lt;/div&gt;&lt;div&gt;&lt;font style=&quot;font-size: 14px;&quot; color=&quot;#ff0080&quot;&gt;&lt;b&gt;&amp;nbsp; &amp;nbsp; &amp;nbsp; &amp;nbsp; &amp;nbsp; &amp;nbsp; &amp;nbsp; &amp;nbsp; &amp;nbsp; &amp;nbsp; &amp;nbsp; &amp;nbsp; &amp;nbsp; &amp;nbsp; &amp;nbsp; &amp;nbsp; &amp;nbsp; &amp;nbsp; &amp;nbsp; &amp;nbsp; &amp;nbsp; &amp;nbsp; &amp;nbsp; &amp;nbsp; &amp;nbsp; -Beekeeping Management Module&lt;/b&gt;&lt;/font&gt;&lt;/div&gt;&lt;div&gt;&lt;font style=&quot;font-size: 14px;&quot; color=&quot;#ff0080&quot;&gt;&lt;b&gt;&amp;nbsp; &amp;nbsp; &amp;nbsp; &amp;nbsp; &amp;nbsp; &amp;nbsp; &amp;nbsp; &amp;nbsp; &amp;nbsp; &amp;nbsp; &amp;nbsp; &amp;nbsp; &amp;nbsp; &amp;nbsp; &amp;nbsp; -Infrastructure Module&lt;/b&gt;&lt;/font&gt;&lt;/div&gt;&lt;div&gt;&lt;font style=&quot;font-size: 14px;&quot; color=&quot;#ff0080&quot;&gt;&lt;b&gt;&amp;nbsp; &amp;nbsp; &amp;nbsp; &amp;nbsp; &amp;nbsp; &amp;nbsp; &amp;nbsp; &amp;nbsp; &amp;nbsp; &amp;nbsp; &amp;nbsp; &amp;nbsp; &amp;nbsp; &amp;nbsp; &amp;nbsp; &amp;nbsp; &amp;nbsp; &amp;nbsp; &amp;nbsp; &amp;nbsp; &amp;nbsp; &amp;nbsp; &amp;nbsp; &amp;nbsp; &amp;nbsp; &amp;nbsp; &amp;nbsp; &amp;nbsp; &amp;nbsp; &amp;nbsp; &amp;nbsp; &amp;nbsp; &amp;nbsp; -Antiqueties Heritage Conservation Module&lt;/b&gt;&lt;/font&gt;&lt;font style=&quot;font-size: 14px;&quot; color=&quot;#ff0080&quot;&gt;&lt;b&gt;&lt;br&gt;&lt;/b&gt;&lt;/font&gt;&lt;/div&gt;&lt;div&gt;&lt;font style=&quot;font-size: 14px;&quot; color=&quot;#ff3333&quot;&gt;&lt;b&gt;&lt;br&gt;&lt;/b&gt;&lt;/font&gt;&lt;/div&gt;" style="sketch=0;pointerEvents=1;shadow=0;dashed=0;html=1;strokeColor=none;labelPosition=center;verticalLabelPosition=bottom;verticalAlign=top;align=center;fillColor=#515151;shape=mxgraph.mscae.system_center.primary_site" vertex="1" parent="1">
          <mxGeometry x="-679" y="347" width="38" height="50" as="geometry" />
        </mxCell>
        <mxCell id="bv6qjs0hTHORihQvAECl-11" value="&lt;b&gt;&lt;font color=&quot;#ff3333&quot;&gt;BI DASHBOARD&lt;/font&gt;&lt;/b&gt;" style="verticalLabelPosition=bottom;html=1;verticalAlign=top;align=center;strokeColor=none;fillColor=#6666FF;shape=mxgraph.azure.computer;pointerEvents=1;" vertex="1" parent="1">
          <mxGeometry x="-95" y="200" width="140" height="147" as="geometry" />
        </mxCell>
        <mxCell id="bv6qjs0hTHORihQvAECl-12" value="&lt;div&gt;&lt;font style=&quot;font-size: 14px;&quot; color=&quot;#ff3333&quot;&gt;&lt;b&gt;TOURISM&lt;br&gt;&lt;/b&gt;&lt;/font&gt;&lt;/div&gt;&lt;div&gt;&lt;font style=&quot;font-size: 14px;&quot; color=&quot;#00cc66&quot;&gt;&lt;b&gt;&amp;nbsp;&amp;nbsp;&amp;nbsp;&amp;nbsp;&amp;nbsp;&amp;nbsp;&amp;nbsp;&amp;nbsp;&amp;nbsp;&amp;nbsp;&amp;nbsp;&amp;nbsp;&amp;nbsp;&amp;nbsp;&amp;nbsp;&amp;nbsp; -MNRT PORTAL&lt;/b&gt;&lt;/font&gt;&lt;/div&gt;&lt;div&gt;&lt;font style=&quot;font-size: 14px;&quot; color=&quot;#00cc66&quot;&gt;&lt;b&gt;&amp;nbsp;-AserT&lt;/b&gt;&lt;/font&gt;&lt;font style=&quot;font-size: 14px;&quot; color=&quot;#00cc66&quot;&gt;&lt;b&gt;&lt;br&gt;&lt;/b&gt;&lt;/font&gt;&lt;/div&gt;" style="sketch=0;pointerEvents=1;shadow=0;dashed=0;html=1;strokeColor=none;labelPosition=center;verticalLabelPosition=bottom;verticalAlign=top;align=center;fillColor=#515151;shape=mxgraph.mscae.system_center.primary_site" vertex="1" parent="1">
          <mxGeometry x="-690" y="110" width="38" height="50" as="geometry" />
        </mxCell>
        <mxCell id="bv6qjs0hTHORihQvAECl-13" value="" style="endArrow=classic;html=1;rounded=0;strokeWidth=2;strokeColor=#00CC66;exitX=0.632;exitY=0.46;exitDx=0;exitDy=0;exitPerimeter=0;entryX=0.5;entryY=1;entryDx=0;entryDy=0;" edge="1" parent="1" source="bv6qjs0hTHORihQvAECl-10" target="bv6qjs0hTHORihQvAECl-9">
          <mxGeometry width="50" height="50" relative="1" as="geometry">
            <mxPoint x="-585.992" y="388" as="sourcePoint" />
            <mxPoint x="-470" y="303" as="targetPoint" />
            <Array as="points">
              <mxPoint x="-497" y="372" />
            </Array>
          </mxGeometry>
        </mxCell>
        <mxCell id="bv6qjs0hTHORihQvAECl-14" value="APIs" style="edgeLabel;html=1;align=center;verticalAlign=middle;resizable=0;points=[];" vertex="1" connectable="0" parent="bv6qjs0hTHORihQvAECl-13">
          <mxGeometry x="0.1342" relative="1" as="geometry">
            <mxPoint as="offset" />
          </mxGeometry>
        </mxCell>
        <mxCell id="bv6qjs0hTHORihQvAECl-15" value="" style="endArrow=classic;html=1;rounded=0;exitX=0.553;exitY=0.5;exitDx=0;exitDy=0;exitPerimeter=0;strokeWidth=2;strokeColor=#00CC66;entryX=0.5;entryY=0;entryDx=0;entryDy=0;" edge="1" parent="1" source="bv6qjs0hTHORihQvAECl-12" target="bv6qjs0hTHORihQvAECl-9">
          <mxGeometry width="50" height="50" relative="1" as="geometry">
            <mxPoint x="-641" y="111" as="sourcePoint" />
            <mxPoint x="-468" y="167" as="targetPoint" />
            <Array as="points">
              <mxPoint x="-497" y="111" />
            </Array>
          </mxGeometry>
        </mxCell>
        <mxCell id="bv6qjs0hTHORihQvAECl-16" value="APIs" style="edgeLabel;html=1;align=center;verticalAlign=middle;resizable=0;points=[];" vertex="1" connectable="0" parent="bv6qjs0hTHORihQvAECl-15">
          <mxGeometry x="0.2522" y="-1" relative="1" as="geometry">
            <mxPoint as="offset" />
          </mxGeometry>
        </mxCell>
        <mxCell id="bv6qjs0hTHORihQvAECl-18" value="" style="endArrow=classic;html=1;rounded=0;strokeWidth=6;strokeColor=#00CC66;exitX=1;exitY=0.5;exitDx=0;exitDy=0;exitPerimeter=0;entryX=-0.005;entryY=0.365;entryDx=0;entryDy=0;entryPerimeter=0;" edge="1" parent="1">
          <mxGeometry width="50" height="50" relative="1" as="geometry">
            <mxPoint x="-717" y="247" as="sourcePoint" />
            <mxPoint x="-722.7649999999999" y="270.75" as="targetPoint" />
          </mxGeometry>
        </mxCell>
        <mxCell id="bv6qjs0hTHORihQvAECl-19" value="" style="endArrow=classic;html=1;rounded=0;strokeWidth=6;strokeColor=#00CC66;exitX=1.004;exitY=0.373;exitDx=0;exitDy=0;exitPerimeter=0;" edge="1" parent="1" target="bv6qjs0hTHORihQvAECl-11">
          <mxGeometry width="50" height="50" relative="1" as="geometry">
            <mxPoint x="-164.788" y="275.15" as="sourcePoint" />
            <mxPoint x="-307" y="271.08" as="targetPoint" />
          </mxGeometry>
        </mxCell>
        <mxCell id="bv6qjs0hTHORihQvAECl-20" value="" style="shape=image;html=1;verticalAlign=top;verticalLabelPosition=bottom;labelBackgroundColor=#ffffff;imageAspect=0;aspect=fixed;image=https://cdn0.iconfinder.com/data/icons/business-startup-10/50/60-128.png" vertex="1" parent="1">
          <mxGeometry x="-68" y="220" width="78" height="78" as="geometry" />
        </mxCell>
        <mxCell id="bv6qjs0hTHORihQvAECl-24" value="" style="ellipse;whiteSpace=wrap;html=1;fillColor=none;strokeWidth=2;strokeColor=#FF3333;" vertex="1" parent="1">
          <mxGeometry x="-708" y="470" width="430" height="50" as="geometry" />
        </mxCell>
        <mxCell id="bv6qjs0hTHORihQvAECl-25" value="APIs" style="text;html=1;align=center;verticalAlign=middle;resizable=0;points=[];autosize=1;strokeColor=none;fillColor=none;" vertex="1" parent="1">
          <mxGeometry x="-163" y="245" width="50" height="30" as="geometry" />
        </mxCell>
        <mxCell id="bv6qjs0hTHORihQvAECl-27" value="&lt;div style=&quot;font-size: 13px;&quot;&gt;&lt;font style=&quot;font-size: 13px;&quot;&gt;&lt;b&gt;&lt;font style=&quot;font-size: 13px;&quot; color=&quot;#ff3333&quot;&gt;MNRT&lt;/font&gt;&lt;/b&gt;&lt;/font&gt;&lt;/div&gt;&lt;div style=&quot;font-size: 13px;&quot;&gt;&lt;font style=&quot;font-size: 13px;&quot; color=&quot;#ff3333&quot;&gt;&lt;b&gt;DATAWARE HOUSE&lt;/b&gt;&lt;br&gt;&lt;/font&gt;&lt;/div&gt;" style="shape=datastore;whiteSpace=wrap;html=1;strokeWidth=2;strokeColor=#6666FF;" vertex="1" parent="1">
          <mxGeometry x="-950" y="253" width="150" height="147" as="geometry" />
        </mxCell>
        <mxCell id="bv6qjs0hTHORihQvAECl-29" value="&lt;div&gt;&lt;b&gt;&lt;font style=&quot;font-size: 18px;&quot; color=&quot;#ff3333&quot;&gt;MNRT Institutions&lt;br&gt;&lt;/font&gt;&lt;/b&gt;&lt;/div&gt;&lt;div align=&quot;left&quot;&gt;&lt;b&gt;&lt;font style=&quot;font-size: 14px;&quot; color=&quot;#00cc66&quot;&gt;&amp;nbsp;-TANAPA&lt;br&gt;&lt;/font&gt;&lt;/b&gt;&lt;/div&gt;&lt;div&gt;&lt;div align=&quot;left&quot;&gt;&lt;b&gt;&lt;font style=&quot;font-size: 14px;&quot; color=&quot;#00cc66&quot;&gt;&amp;nbsp;-NCAA&lt;/font&gt;&lt;font style=&quot;font-size: 14px;&quot; color=&quot;#00cc66&quot;&gt;&lt;br&gt;&lt;/font&gt;&lt;/b&gt;&lt;/div&gt;&lt;div align=&quot;left&quot;&gt;&lt;b&gt;&lt;font color=&quot;#00cc66&quot;&gt;&amp;nbsp;&lt;/font&gt;&lt;font style=&quot;font-size: 14px;&quot; color=&quot;#00cc66&quot;&gt;-TAWA&lt;/font&gt;&lt;/b&gt;&lt;/div&gt;&lt;div align=&quot;left&quot;&gt;&lt;b&gt;&lt;font style=&quot;font-size: 14px;&quot; color=&quot;#00cc66&quot;&gt;&amp;nbsp;-TFS&lt;br&gt;&lt;/font&gt;&lt;/b&gt;&lt;/div&gt;&lt;div align=&quot;left&quot;&gt;&lt;b&gt;&lt;font style=&quot;font-size: 14px;&quot; color=&quot;#00cc66&quot;&gt;&amp;nbsp;-TAWIRI&lt;br&gt;&lt;/font&gt;&lt;/b&gt;&lt;div&gt;&lt;div align=&quot;left&quot;&gt;&lt;b&gt;&lt;font style=&quot;font-size: 14px;&quot; color=&quot;#00cc66&quot;&gt;&amp;nbsp;-NMT&lt;/font&gt;&lt;font style=&quot;font-size: 14px;&quot; color=&quot;#00cc66&quot;&gt;&lt;br&gt;&lt;/font&gt;&lt;/b&gt;&lt;/div&gt;&lt;div align=&quot;left&quot;&gt;&lt;b&gt;&lt;font color=&quot;#00cc66&quot;&gt;&amp;nbsp;&lt;/font&gt;&lt;font style=&quot;font-size: 14px;&quot; color=&quot;#00cc66&quot;&gt;-TAFORI&lt;/font&gt;&lt;/b&gt;&lt;/div&gt;&lt;div align=&quot;left&quot;&gt;&lt;b&gt;&lt;font style=&quot;font-size: 14px;&quot; color=&quot;#00cc66&quot;&gt;&amp;nbsp;-NCT&lt;/font&gt;&lt;/b&gt;&lt;/div&gt;&lt;div align=&quot;left&quot;&gt;&lt;b&gt;&lt;font style=&quot;font-size: 14px;&quot; color=&quot;#00cc66&quot;&gt;&amp;nbsp;-CAWM&lt;/font&gt;&lt;/b&gt;&lt;/div&gt;&lt;div align=&quot;left&quot;&gt;&lt;b&gt;&lt;font style=&quot;font-size: 14px;&quot; color=&quot;#00cc66&quot;&gt;&amp;nbsp;-PWTI&lt;/font&gt;&lt;/b&gt;&lt;/div&gt;&lt;div align=&quot;left&quot;&gt;&lt;b&gt;&lt;font style=&quot;font-size: 14px;&quot; color=&quot;#00cc66&quot;&gt;&amp;nbsp;-FITI&lt;/font&gt;&lt;/b&gt;&lt;/div&gt;&lt;div align=&quot;left&quot;&gt;&lt;b&gt;&lt;font style=&quot;font-size: 14px;&quot; color=&quot;#00cc66&quot;&gt;&amp;nbsp;-FTI&lt;/font&gt;&lt;/b&gt;&lt;/div&gt;&lt;div align=&quot;left&quot;&gt;&lt;b&gt;&lt;font style=&quot;font-size: 14px;&quot; color=&quot;#00cc66&quot;&gt;&amp;nbsp;-BTI&lt;/font&gt;&lt;/b&gt;&lt;/div&gt;&lt;div align=&quot;left&quot;&gt;&lt;b&gt;&lt;font style=&quot;font-size: 14px;&quot; color=&quot;#00cc66&quot;&gt;&amp;nbsp;-CBCTC&lt;/font&gt;&lt;/b&gt;&lt;/div&gt;&lt;/div&gt;&lt;/div&gt;&lt;font style=&quot;font-size: 14px;&quot; color=&quot;#00cc66&quot;&gt;&lt;b&gt;&lt;/b&gt;&lt;/font&gt;&lt;/div&gt;" style="sketch=0;pointerEvents=1;shadow=0;dashed=0;html=1;strokeColor=none;labelPosition=center;verticalLabelPosition=bottom;verticalAlign=top;align=center;fillColor=#515151;shape=mxgraph.mscae.system_center.primary_site" vertex="1" parent="1">
          <mxGeometry x="-1480" y="100" width="38" height="50" as="geometry" />
        </mxCell>
      </root>
    </mxGraphModel>
  </diagram>
</mxfile>
